<svg width="35" height="35" viewBox="0 0 35 35" fill="none" xmlns="http://www.w3.org/2000/svg">
<path d="M31.8039 15.5575C30.3804 21.5854 22.0526 28.387 18.8003 30.2719C17.988 30.7427 17.0117 30.7427 16.1994 30.2719C12.9471 28.387 4.61932 21.5854 3.19581 15.5575C1.91042 10.1144 5.17266 4.45881 10.6969 4.37753C10.8109 4.37585 10.9266 4.375 11.044 4.375C13.2679 4.375 15.2532 5.48577 16.4172 6.30699C17.053 6.75564 17.9466 6.75564 18.5825 6.30699C19.7464 5.48577 21.7318 4.375 23.9556 4.375C24.0731 4.375 24.1888 4.37585 24.3028 4.37753C29.827 4.45881 33.0893 10.1144 31.8039 15.5575Z" fill="white"/>
</svg>
