<svg width="32" height="32" viewBox="0 0 32 32" fill="none" xmlns="http://www.w3.org/2000/svg">
<path fill-rule="evenodd" clip-rule="evenodd" d="M7.21442 15.4967L7.66633 19.9487L7.6664 19.9986L6.6664 20C7.6664 19.9986 7.6664 19.9979 7.6664 19.9986L7.6664 20.0012L7.66639 20.004L7.66635 20.0102L7.66614 20.0248C7.66594 20.0356 7.66558 20.0484 7.66499 20.0631C7.6638 20.0926 7.66166 20.1298 7.65786 20.1741C7.65026 20.2628 7.63599 20.3803 7.60931 20.5211C7.55597 20.8027 7.45259 21.1796 7.25241 21.6054C6.9248 22.3022 6.35191 23.0993 5.37241 23.8139C6.14621 24.2164 7.63778 24.697 10.1238 25.0077L10.1528 25.0113L12.2571 25.4003L13.2403 25.744C19.9664 28.0953 26.9997 23.1086 26.9997 15.9953V15.5462C26.9997 10.091 22.5717 5.66666 17.107 5.66666C11.6588 5.66666 7.24107 10.0643 7.21442 15.4967ZM5.66343 20.0214L5.21429 15.5968V15.5462C5.21429 8.98415 10.54 3.66666 17.107 3.66666C23.674 3.66666 28.9997 8.98415 28.9997 15.5462V15.9953C28.9997 24.4895 20.6033 30.4366 12.5803 27.632L11.7423 27.339L9.84652 26.9886C7.13924 26.6478 5.34229 26.0922 4.28412 25.499C3.78083 25.2168 3.29962 24.8469 3.06273 24.3591C2.93275 24.0914 2.85211 23.7313 2.97121 23.3464C3.09049 22.961 3.36057 22.7109 3.61677 22.567C4.71232 21.9519 5.2093 21.2503 5.44248 20.7544C5.56195 20.5003 5.61805 20.2872 5.64427 20.1488C5.65481 20.0932 5.66045 20.0499 5.66343 20.0214Z" fill="black"/>
<path d="M7.6664 19.9986L7.66633 19.9487L7.21442 15.4967C7.24107 10.0643 11.6588 5.66666 17.107 5.66666C22.5717 5.66666 26.9997 10.091 26.9997 15.5462V15.9953C26.9997 23.1086 19.9664 28.0953 13.2403 25.744L12.2571 25.4003L10.1528 25.0113L10.1238 25.0077C7.63778 24.697 6.14621 24.2164 5.37241 23.8139C6.35191 23.0993 6.9248 22.3022 7.25241 21.6053C7.45259 21.1796 7.55597 20.8027 7.60931 20.5211C7.636 20.3803 7.65026 20.2628 7.65786 20.1741C7.66166 20.1298 7.6638 20.0926 7.66499 20.0631C7.66558 20.0484 7.66594 20.0356 7.66614 20.0248L7.66635 20.0102L7.66639 20.004L7.6664 20.0012L7.6664 19.9986ZM7.6664 19.9986L6.6664 20C7.6664 19.9986 7.6664 19.9979 7.6664 19.9986ZM5.66343 20.0214C5.66045 20.0499 5.65481 20.0932 5.64427 20.1488C5.61805 20.2872 5.56195 20.5003 5.44248 20.7544C5.2093 21.2503 4.71232 21.9519 3.61677 22.567C3.36057 22.7109 3.09049 22.961 2.97121 23.3464C2.85211 23.7313 2.93275 24.0914 3.06273 24.3591C3.29962 24.8469 3.78083 25.2168 4.28412 25.499C5.34229 26.0922 7.13924 26.6478 9.84652 26.9886L11.7423 27.339L12.5803 27.632C20.6033 30.4366 28.9997 24.4895 28.9997 15.9953V15.5462C28.9997 8.98415 23.674 3.66666 17.107 3.66666C10.54 3.66666 5.21429 8.98415 5.21429 15.5462V15.5968L5.66343 20.0214Z" stroke="black"/>
</svg>
