<svg width="353" height="99" viewBox="0 0 353 99" fill="none" xmlns="http://www.w3.org/2000/svg">
<g clip-path="url(#clip0_26_332)">
<rect width="353" height="99" rx="20" fill="black"/>
<path fill-rule="evenodd" clip-rule="evenodd" d="M41.2931 30.1019C39.1172 25.7906 33.8583 24.0596 29.547 26.2355L24.3949 28.8358C22.9291 29.5756 22.3405 31.3636 23.0803 32.8295L25.6807 37.9816C27.8566 42.2928 33.1155 44.0239 37.4267 41.848C41.738 39.672 43.4691 34.4131 41.2931 30.1019ZM37.6533 48.3413C37.8457 49.0723 42.6143 66.2959 52.9161 68.7036C55.3359 69.2663 57.88 68.8461 59.9904 67.5353C62.1008 66.2246 63.6051 64.1302 64.1732 61.7117C64.8835 58.6726 64.1985 55.7064 62.3771 53.5315C64.9738 52.3892 66.9025 50.0338 67.6128 46.9948C68.1755 44.575 67.7554 42.0308 66.4446 39.9205C65.1338 37.8101 63.0394 36.3058 60.6209 35.7377C50.319 33.3299 38.4104 46.6558 37.914 47.2258C37.7817 47.3756 37.6887 47.556 37.6432 47.7507C37.5977 47.9454 37.6012 48.1483 37.6533 48.3413Z" fill="url(#paint0_linear_26_332)"/>
<circle cx="30.9865" cy="31.9558" r="2.60536" transform="rotate(13.155 30.9865 31.9558)" fill="white"/>
<circle cx="30" cy="31.7252" r="1.59217" transform="rotate(13.155 30 31.7252)" fill="black"/>
<path d="M94.317 47H88.1737V29.2195H94.317V35.3378H100.835V29.2195H106.978V47H100.835V39.708H94.317V47ZM119.006 43.4289C119.889 43.4289 120.605 43.2874 121.154 43.0044C121.72 42.7214 122.136 42.1969 122.403 41.4311C122.669 40.6486 122.802 39.5415 122.802 38.1098C122.802 37.0276 122.727 36.1452 122.577 35.4627C122.428 34.7634 122.194 34.2224 121.878 33.8394C121.578 33.4399 121.187 33.1652 120.704 33.0153C120.238 32.8655 119.681 32.7906 119.031 32.7906C118.149 32.7906 117.425 32.9321 116.859 33.2151C116.309 33.4981 115.901 34.0309 115.635 34.8134C115.369 35.5792 115.235 36.6863 115.235 38.1347C115.235 39.5665 115.369 40.6653 115.635 41.4311C115.901 42.1969 116.309 42.7214 116.859 43.0044C117.425 43.2874 118.141 43.4289 119.006 43.4289ZM119.006 47.3746C117.491 47.3746 116.118 47.2331 114.886 46.9501C113.654 46.667 112.597 46.1842 111.714 45.5016C110.832 44.8024 110.149 43.8535 109.667 42.6548C109.2 41.4561 108.967 39.9494 108.967 38.1347C108.967 36.3034 109.2 34.7884 109.667 33.5897C110.149 32.3744 110.832 31.4254 111.714 30.7428C112.597 30.0436 113.654 29.5525 114.886 29.2694C116.118 28.9864 117.491 28.8449 119.006 28.8449C120.538 28.8449 121.92 28.9864 123.152 29.2694C124.384 29.5525 125.441 30.0436 126.323 30.7428C127.206 31.4254 127.88 32.3661 128.346 33.5647C128.829 34.7634 129.07 36.2784 129.07 38.1098C129.07 39.9411 128.829 41.4561 128.346 42.6548C127.88 43.8535 127.206 44.8024 126.323 45.5016C125.441 46.1842 124.384 46.667 123.152 46.9501C121.92 47.2331 120.538 47.3746 119.006 47.3746ZM141.51 47H131.047V29.2195H140.761C142.343 29.2195 143.649 29.361 144.682 29.644C145.714 29.9104 146.48 30.3349 146.979 30.9176C147.495 31.4837 147.753 32.2245 147.753 33.1402C147.753 34.0392 147.504 34.7551 147.004 35.2878C146.521 35.8039 145.839 36.1869 144.956 36.4366C144.074 36.6863 143.058 36.8528 141.91 36.936V37.1358C143.125 37.1525 144.207 37.2524 145.156 37.4355C146.105 37.602 146.896 37.8684 147.529 38.2346C148.178 38.6009 148.669 39.092 149.002 39.708C149.335 40.3073 149.501 41.0482 149.501 41.9306C149.501 43.2458 149.202 44.2697 148.602 45.0022C148.02 45.7347 147.137 46.2508 145.955 46.5505C144.773 46.8502 143.292 47 141.51 47ZM137.19 43.2042H140.361C141.077 43.2042 141.643 43.1459 142.06 43.0294C142.492 42.8962 142.809 42.6881 143.008 42.405C143.208 42.122 143.308 41.7558 143.308 41.3062C143.308 40.8401 143.208 40.4738 143.008 40.2075C142.809 39.9244 142.492 39.7246 142.06 39.6081C141.643 39.4749 141.077 39.4083 140.361 39.4083H137.19V43.2042ZM137.19 35.7623H139.612C140.345 35.7623 140.853 35.6624 141.136 35.4627C141.419 35.2629 141.56 34.9049 141.56 34.3888C141.56 33.8561 141.419 33.4981 141.136 33.315C140.853 33.1152 140.345 33.0153 139.612 33.0153H137.19V35.7623Z" fill="white"/>
<path d="M88.2141 72V58.721H93.943C96.7885 58.721 98.7993 60.5042 98.7993 63.2359C98.7993 65.9675 96.7885 67.7507 93.943 67.7507H91.6666V72H88.2141ZM91.6666 64.6776H93.7533C94.7587 64.6776 95.3089 64.1274 95.3089 63.2359C95.3089 62.3443 94.7587 61.7941 93.7533 61.7941H91.6666V64.6776ZM100.4 72V61.7183H103.549V63.5204C104.061 62.3822 105.181 61.7183 106.49 61.7183H107.4V64.6776H106.376C104.517 64.6776 103.625 65.5692 103.625 67.4282V72H100.4ZM113.669 72.1518C110.482 72.1518 108.205 70.084 108.205 66.935C108.205 63.748 110.558 61.5665 113.65 61.5665C116.571 61.5665 118.867 63.5583 118.867 66.6694C118.867 66.954 118.848 67.2765 118.81 67.599H111.355C111.582 68.8889 112.493 69.5339 113.707 69.5339C114.655 69.5339 115.357 69.1545 115.642 68.5285H118.753C118.203 70.8049 116.23 72.1518 113.669 72.1518ZM111.506 65.5502H115.642C115.376 64.6207 114.636 64.1844 113.65 64.1844C112.626 64.1844 111.867 64.6396 111.506 65.5502ZM120.5 72V61.7183H123.649V63.2169C124.313 62.1735 125.489 61.5665 126.741 61.5665C128.012 61.5665 129.113 62.2115 129.701 63.3687C130.384 62.2304 131.768 61.5665 133.115 61.5665C135.126 61.5665 136.625 63.0272 136.625 65.5692V72H133.4V66.5935C133.4 65.1518 132.831 64.5258 131.882 64.5258C130.877 64.5258 130.175 65.2087 130.175 66.7833V72H126.95V66.5935C126.95 65.1518 126.381 64.5258 125.432 64.5258C124.427 64.5258 123.725 65.2277 123.725 66.7833V72H120.5ZM138.637 72V61.7183H141.862V72H138.637ZM138.238 58.7969C138.238 57.6776 139.149 56.8619 140.249 56.8619C141.349 56.8619 142.26 57.6776 142.26 58.7969C142.26 59.9161 141.349 60.7318 140.249 60.7318C139.149 60.7318 138.238 59.9161 138.238 58.7969ZM147.405 72.1518C145.413 72.1518 143.877 70.729 143.877 68.1491V61.7183H147.102V67.2006C147.102 68.5475 147.747 69.1924 148.733 69.1924C149.776 69.1924 150.592 68.4716 150.592 67.0109V61.7183H153.817V72H150.668V70.4634C149.966 71.5258 148.733 72.1518 147.405 72.1518ZM155.939 72V61.7183H159.088V63.2169C159.752 62.1735 160.928 61.5665 162.18 61.5665C163.451 61.5665 164.552 62.2115 165.14 63.3687C165.823 62.2304 167.208 61.5665 168.554 61.5665C170.565 61.5665 172.064 63.0272 172.064 65.5692V72H168.839V66.5935C168.839 65.1518 168.27 64.5258 167.321 64.5258C166.316 64.5258 165.614 65.2087 165.614 66.7833V72H162.389V66.5935C162.389 65.1518 161.82 64.5258 160.872 64.5258C159.866 64.5258 159.164 65.2277 159.164 66.7833V72H155.939Z" fill="url(#paint1_linear_26_332)"/>
<path d="M261 104C261 104 315 99.9346 318 83.9346C321 67.9346 306.5 58 293.5 63C280.5 68 281 84 325 84C369 84 383.5 23 383.5 23" stroke="url(#paint2_linear_26_332)" stroke-width="8"/>
</g>
<defs>
<linearGradient id="paint0_linear_26_332" x1="25.0226" y1="29.4954" x2="57.7093" y2="71.3783" gradientUnits="userSpaceOnUse">
<stop stop-color="#EBE540"/>
<stop offset="1" stop-color="#F4B658"/>
</linearGradient>
<linearGradient id="paint1_linear_26_332" x1="87" y1="65.5" x2="174" y2="65.5" gradientUnits="userSpaceOnUse">
<stop stop-color="#F4BB53"/>
<stop offset="0.51" stop-color="#F5CF3D"/>
<stop offset="1" stop-color="#F4B856"/>
</linearGradient>
<linearGradient id="paint2_linear_26_332" x1="347.5" y1="74" x2="296.5" y2="104" gradientUnits="userSpaceOnUse">
<stop stop-color="#F5D438"/>
<stop offset="1" stop-color="#FFA204"/>
</linearGradient>
<clipPath id="clip0_26_332">
<rect width="353" height="99" rx="20" fill="white"/>
</clipPath>
</defs>
</svg>
