<svg width="14" height="23" viewBox="0 0 14 23" fill="none" xmlns="http://www.w3.org/2000/svg">
<path fill-rule="evenodd" clip-rule="evenodd" d="M8.13739 0.0288253C7.57825 -0.0922899 7.11837 0.191836 6.8257 0.442587C6.52042 0.704137 6.22254 1.07673 5.92709 1.49784C5.33757 2.33809 4.60071 3.60411 3.66237 5.21629L0.975243 9.83306C0.664753 10.3664 0.386707 10.844 0.217996 11.241C0.0516838 11.6324 -0.13579 12.2273 0.141608 12.8321C0.435013 13.4719 1.0217 13.647 1.42453 13.7108C1.81536 13.7727 2.32305 13.7726 2.8701 13.7725L5.44259 13.7724L5.10746 15.6193C4.79262 17.3543 4.54245 18.7329 4.46178 19.6942C4.42183 20.1702 4.41243 20.6481 4.5041 21.0496C4.60323 21.4839 4.8833 22.0324 5.52415 22.1712C6.08329 22.2923 6.54317 22.0082 6.83584 21.7574C7.14112 21.4959 7.439 21.1233 7.73444 20.7022C8.32396 19.8619 9.06082 18.5959 9.99914 16.9838L12.6863 12.367C12.9968 11.8336 13.2748 11.356 13.4435 10.959C13.6099 10.5676 13.7973 9.97274 13.5199 9.36789C13.2265 8.72813 12.6398 8.55304 12.237 8.48922C11.8462 8.4273 11.3385 8.42738 10.7914 8.42747L8.21896 8.42751L8.55408 6.58067C8.86892 4.84564 9.11909 3.46706 9.19975 2.5058C9.2397 2.0298 9.24911 1.55191 9.15743 1.15036C9.0583 0.716142 8.77824 0.167638 8.13739 0.0288253Z" fill="white"/>
</svg>
