<svg width="137" height="75" viewBox="0 0 137 75" fill="none" xmlns="http://www.w3.org/2000/svg">
<path fill-rule="evenodd" clip-rule="evenodd" d="M31.3517 20.7294C28.0869 16.8296 22.2789 16.3149 18.3792 19.5797L13.7189 23.4812C12.393 24.5912 12.218 26.5659 13.328 27.8918L17.2295 32.5522C20.4943 36.4519 26.3023 36.9666 30.202 33.7019C34.1017 30.4371 34.6165 24.6291 31.3517 20.7294ZM31.9906 40.3066C32.363 41.0101 41.3815 57.5302 52.5233 57.5302C55.1397 57.5273 57.6481 56.4866 59.4981 54.6366C61.3482 52.7865 62.3888 50.2781 62.3918 47.6618C62.3918 44.3749 60.9784 41.4972 58.5892 39.7033C60.9784 37.9095 62.3918 35.0317 62.3918 31.7449C62.3888 29.1285 61.3482 26.6202 59.4981 24.7701C57.6481 22.9201 55.1397 21.8794 52.5233 21.8765C41.3815 21.8765 32.363 38.3966 31.9906 39.1001C31.8908 39.2855 31.8386 39.4928 31.8386 39.7033C31.8386 39.9139 31.8908 40.1212 31.9906 40.3066Z" fill="url(#paint0_linear_44_3758)"/>
<circle cx="21.2264" cy="25.1009" r="2.74384" fill="white"/>
<circle cx="20.1594" cy="25.1009" r="1.67679" fill="black"/>
<path d="M83.056 46H77.152V28.912H83.056V34.792H89.32V28.912H95.224V46H89.32V38.992H83.056V46ZM106.807 42.568C107.655 42.568 108.343 42.432 108.871 42.16C109.415 41.888 109.815 41.384 110.071 40.648C110.327 39.896 110.455 38.832 110.455 37.456C110.455 36.416 110.383 35.568 110.239 34.912C110.095 34.24 109.871 33.72 109.567 33.352C109.279 32.968 108.903 32.704 108.439 32.56C107.991 32.416 107.455 32.344 106.831 32.344C105.983 32.344 105.287 32.48 104.743 32.752C104.215 33.024 103.823 33.536 103.567 34.288C103.311 35.024 103.183 36.088 103.183 37.48C103.183 38.856 103.311 39.912 103.567 40.648C103.823 41.384 104.215 41.888 104.743 42.16C105.287 42.432 105.975 42.568 106.807 42.568ZM106.807 46.36C105.351 46.36 104.031 46.224 102.847 45.952C101.663 45.68 100.647 45.216 99.7992 44.56C98.9512 43.888 98.2952 42.976 97.8312 41.824C97.3832 40.672 97.1592 39.224 97.1592 37.48C97.1592 35.72 97.3832 34.264 97.8312 33.112C98.2952 31.944 98.9512 31.032 99.7992 30.376C100.647 29.704 101.663 29.232 102.847 28.96C104.031 28.688 105.351 28.552 106.807 28.552C108.279 28.552 109.607 28.688 110.791 28.96C111.975 29.232 112.991 29.704 113.839 30.376C114.687 31.032 115.335 31.936 115.783 33.088C116.247 34.24 116.479 35.696 116.479 37.456C116.479 39.216 116.247 40.672 115.783 41.824C115.335 42.976 114.687 43.888 113.839 44.56C112.991 45.216 111.975 45.68 110.791 45.952C109.607 46.224 108.279 46.36 106.807 46.36ZM128.458 46H118.402V28.912H127.738C129.258 28.912 130.514 29.048 131.506 29.32C132.498 29.576 133.234 29.984 133.714 30.544C134.21 31.088 134.458 31.8 134.458 32.68C134.458 33.544 134.218 34.232 133.738 34.744C133.274 35.24 132.618 35.608 131.77 35.848C130.922 36.088 129.946 36.248 128.842 36.328V36.52C130.01 36.536 131.05 36.632 131.962 36.808C132.874 36.968 133.634 37.224 134.242 37.576C134.866 37.928 135.338 38.4 135.658 38.992C135.978 39.568 136.138 40.28 136.138 41.128C136.138 42.392 135.85 43.376 135.274 44.08C134.714 44.784 133.866 45.28 132.73 45.568C131.594 45.856 130.17 46 128.458 46ZM124.306 42.352H127.354C128.042 42.352 128.586 42.296 128.986 42.184C129.402 42.056 129.706 41.856 129.898 41.584C130.09 41.312 130.186 40.96 130.186 40.528C130.186 40.08 130.09 39.728 129.898 39.472C129.706 39.2 129.402 39.008 128.986 38.896C128.586 38.768 128.042 38.704 127.354 38.704H124.306V42.352ZM124.306 35.2H126.634C127.338 35.2 127.826 35.104 128.098 34.912C128.37 34.72 128.506 34.376 128.506 33.88C128.506 33.368 128.37 33.024 128.098 32.848C127.826 32.656 127.338 32.56 126.634 32.56H124.306V35.2Z" fill="white"/>
<defs>
<linearGradient id="paint0_linear_44_3758" x1="14.5207" y1="24.0072" x2="58.08" y2="59.1243" gradientUnits="userSpaceOnUse">
<stop stop-color="#EE1F84"/>
<stop offset="1" stop-color="#AA5CE8"/>
</linearGradient>
</defs>
</svg>
