<svg width="32" height="32" viewBox="0 0 32 32" fill="none" xmlns="http://www.w3.org/2000/svg">
<path d="M13.3751 30.0002C13.0986 30.0016 12.8282 29.9185 12.6001 29.7622C12.372 29.6058 12.1971 29.3836 12.0987 29.1251L9.91987 23.4594C9.87575 23.3453 9.80824 23.2416 9.72169 23.155C9.63514 23.0685 9.53146 23.001 9.41729 22.9568L3.74993 20.7764C3.49177 20.6773 3.26972 20.5023 3.11309 20.2744C2.95646 20.0465 2.87261 19.7765 2.87261 19.5C2.87261 19.2235 2.95646 18.9534 3.11309 18.7256C3.26972 18.4977 3.49177 18.3226 3.74993 18.2236L9.41565 16.0448C9.52982 16.0006 9.6335 15.9331 9.72005 15.8466C9.8066 15.76 9.8741 15.6564 9.91823 15.5422L12.0987 9.87483C12.1977 9.61667 12.3728 9.39462 12.6007 9.23799C12.8285 9.08136 13.0986 8.99751 13.3751 8.99751C13.6516 8.99751 13.9216 9.08136 14.1495 9.23799C14.3774 9.39462 14.5524 9.61667 14.6515 9.87483L16.8303 15.5405C16.8744 15.6547 16.9419 15.7584 17.0285 15.845C17.115 15.9315 17.2187 15.999 17.3329 16.0431L22.9658 18.2104C23.2345 18.31 23.4659 18.49 23.6287 18.7258C23.7914 18.9616 23.8775 19.2419 23.8753 19.5284C23.8711 19.8001 23.7855 20.0643 23.6295 20.2868C23.4735 20.5093 23.2543 20.6799 23.0002 20.7764L17.3345 22.9552C17.2204 22.9993 17.1167 23.0668 17.0301 23.1534C16.9436 23.2399 16.8761 23.3436 16.8319 23.4578L14.6515 29.1251C14.5531 29.3836 14.3782 29.6058 14.1501 29.7622C13.922 29.9185 13.6516 30.0016 13.3751 30.0002ZM6.81248 11.6249C6.65036 11.6248 6.49204 11.5757 6.35839 11.484C6.22474 11.3922 6.12203 11.2621 6.06379 11.1108L5.14175 8.71325C5.12176 8.66081 5.09092 8.61319 5.05124 8.57351C5.01156 8.53383 4.96394 8.50299 4.91151 8.48301L2.51397 7.56096C2.36269 7.5027 2.23261 7.39999 2.14086 7.26634C2.04911 7.13269 2 6.97439 2 6.81228C2 6.65017 2.04911 6.49186 2.14086 6.35821C2.23261 6.22457 2.36269 6.12185 2.51397 6.06359L4.91151 5.14155C4.96389 5.12147 5.01146 5.0906 5.05113 5.05093C5.0908 5.01126 5.12167 4.96369 5.14175 4.91131L6.05559 2.5351C6.10713 2.3952 6.19581 2.272 6.31211 2.17873C6.42841 2.08546 6.56793 2.02564 6.71568 2.00571C6.89306 1.98415 7.07256 2.02242 7.22572 2.11445C7.37889 2.20649 7.49694 2.34702 7.56116 2.51377L8.48321 4.91131C8.50328 4.96369 8.53416 5.01126 8.57383 5.05093C8.61349 5.0906 8.66106 5.12147 8.71345 5.14155L11.111 6.06359C11.2623 6.12185 11.3924 6.22457 11.4841 6.35821C11.5758 6.49186 11.625 6.65017 11.625 6.81228C11.625 6.97439 11.5758 7.13269 11.4841 7.26634C11.3924 7.39999 11.2623 7.5027 11.111 7.56096L8.71345 8.48301C8.66101 8.50299 8.61339 8.53383 8.57372 8.57351C8.53404 8.61319 8.50319 8.66081 8.48321 8.71325L7.56116 11.1108C7.50292 11.2621 7.40021 11.3922 7.26656 11.484C7.13291 11.5757 6.9746 11.6248 6.81248 11.6249ZM23.8753 15.9999C23.6984 15.9999 23.5257 15.9462 23.38 15.8461C23.2342 15.7459 23.1222 15.6039 23.0588 15.4388L21.8097 12.192C21.7877 12.1348 21.754 12.0828 21.7106 12.0395C21.6673 11.9961 21.6153 11.9624 21.5581 11.9404L18.3113 10.6913C18.1463 10.6278 18.0045 10.5157 17.9044 10.37C17.8044 10.2242 17.7509 10.0516 17.7509 9.87483C17.7509 9.69805 17.8044 9.52542 17.9044 9.37967C18.0045 9.23392 18.1463 9.12189 18.3113 9.05833L21.5581 7.80925C21.6153 7.78727 21.6673 7.75352 21.7106 7.71019C21.754 7.66685 21.7877 7.61489 21.8097 7.55768L23.0495 4.3338C23.1061 4.18134 23.2029 4.04708 23.3298 3.94529C23.4566 3.84351 23.6086 3.778 23.7697 3.75574C23.9633 3.73231 24.1591 3.7742 24.3262 3.87476C24.4932 3.97533 24.6219 4.1288 24.6918 4.31083L25.9408 7.55768C25.9628 7.61489 25.9966 7.66685 26.0399 7.71019C26.0832 7.75352 26.1352 7.78727 26.1924 7.80925L29.4393 9.05833C29.6042 9.12189 29.7461 9.23392 29.8461 9.37967C29.9461 9.52542 29.9997 9.69805 29.9997 9.87483C29.9997 10.0516 29.9461 10.2242 29.8461 10.37C29.7461 10.5157 29.6042 10.6278 29.4393 10.6913L26.1924 11.9404C26.1352 11.9624 26.0832 11.9961 26.0399 12.0395C25.9966 12.0828 25.9628 12.1348 25.9408 12.192L24.6918 15.4388C24.6283 15.6039 24.5163 15.7459 24.3706 15.8461C24.2248 15.9462 24.0521 15.9999 23.8753 15.9999Z" fill="black"/>
</svg>
