<svg width="35" height="35" viewBox="0 0 35 35" fill="none" xmlns="http://www.w3.org/2000/svg">
<path fill-rule="evenodd" clip-rule="evenodd" d="M7.9766 7.9766C8.40374 7.54947 9.09626 7.54947 9.5234 7.9766L17.5 15.9532L25.4766 7.9766C25.9037 7.54947 26.5963 7.54947 27.0234 7.9766C27.4505 8.40374 27.4505 9.09626 27.0234 9.5234L19.0468 17.5L27.0234 25.4766C27.4505 25.9037 27.4505 26.5963 27.0234 27.0234C26.5963 27.4505 25.9037 27.4505 25.4766 27.0234L17.5 19.0468L9.5234 27.0234C9.09626 27.4505 8.40374 27.4505 7.9766 27.0234C7.54947 26.5963 7.54947 25.9037 7.9766 25.4766L15.9532 17.5L7.9766 9.5234C7.54947 9.09626 7.54947 8.40374 7.9766 7.9766Z" fill="white"/>
</svg>
