<svg width="32" height="32" viewBox="0 0 32 32" fill="none" xmlns="http://www.w3.org/2000/svg">
<path d="M28.8801 13.92L27.5734 19.4933C26.4534 24.3067 24.2401 26.2533 20.0801 25.8533C19.4134 25.8 18.6934 25.68 17.9201 25.4933L15.6801 24.96C10.1201 23.64 8.40008 20.8933 9.70674 15.32L11.0134 9.73332C11.2801 8.59999 11.6001 7.61332 12.0001 6.79999C13.5601 3.57332 16.2134 2.70666 20.6667 3.75999L22.8934 4.27999C28.4801 5.58666 30.1867 8.34666 28.8801 13.92Z" stroke="#292D32" stroke-width="2.5" stroke-linecap="round" stroke-linejoin="round"/>
<path d="M20.08 25.8533C19.2533 26.4133 18.2133 26.88 16.9466 27.2933L14.84 27.9867C9.54663 29.6933 6.75997 28.2667 5.03997 22.9733L3.3333 17.7067C1.62663 12.4133 3.03997 9.61332 8.3333 7.90665L10.44 7.21332C10.9866 7.03999 11.5066 6.89332 12 6.79999C11.6 7.61332 11.28 8.59999 11.0133 9.73332L9.70663 15.32C8.39997 20.8933 10.12 23.64 15.68 24.96L17.92 25.4933C18.6933 25.68 19.4133 25.8 20.08 25.8533Z" stroke="#292D32" stroke-width="2.5" stroke-linecap="round" stroke-linejoin="round"/>
</svg>
